<svg viewBox="0 0 512 512" fill='white' xmlns="http://www.w3.org/2000/svg"><path d="m165.875 121.003906c-5.121094.042969-9.695312 2.683594-12.355469 6.675782l-59.9375 89.90625c-2.636719 3.890624-3.285156 8.785156-1.796875 13.207031 0 0 .003906.003906.003906.003906.507813 1.226563 1.019532 2.835937 2.761719 4.894531l149.925781 179.910156c.023438.03125.050782.050782.074219.078126 2.945313 3.484374 7.253907 5.320312 11.449219 5.320312 4.179688 0 8.480469-1.808594 11.449219-5.320312.023437-.027344.050781-.050782.074219-.078126l149.925781-179.910156c1.949219-2.300781 2.53125-4.378906 2.765625-4.894531 0 0 0 0 0-.003906 1.5-4.445313.828125-9.335938-1.796875-13.207031l-59.9375-89.90625c-2.800781-4.203126-7.503907-6.632813-12.347657-6.675782-.046874 0-.089843-.003906-.132812-.003906h-180c-.042969 0-.082031.003906-.125.003906zm90.125 237.5625-39.1875-117.566406h78.375zm94.53125-188.726562 27.441406 41.160156h-41.160156zm23.445312 71.160156-78.605468 94.324219 31.441406-94.324219zm-48.789062-90-13.71875 41.160156-27.441406-41.160156zm-37.214844 60h-63.945312l31.972656-47.957031zm-60-60-27.441406 41.160156-13.71875-41.160156zm-11.34375 184.324219-78.605468-94.324219h47.164062zm-82.601562-124.324219 27.441406-41.160156 13.71875 41.160156zm0 0"/><path d="m15 241c-8.285156 0-15 6.714844-15 15s6.714844 15 15 15h31c8.285156 0 15-6.714844 15-15s-6.714844-15-15-15zm0 0"/><path d="m497 241h-31c-8.285156 0-15 6.714844-15 15s6.714844 15 15 15h31c8.285156 0 15-6.714844 15-15s-6.714844-15-15-15zm0 0"/><path d="m96.902344 373.878906-21.214844 21.210938c-5.859375 5.859375-5.859375 15.355468 0 21.214844 5.855469 5.855468 15.351562 5.855468 21.210938 0l21.214843-21.214844c5.859375-5.859375 5.859375-15.355469 0-21.210938-5.855469-5.859375-15.351562-5.859375-21.210937 0zm0 0"/><path d="m451.3125 70.679688c-5.855469-5.855469-15.351562-5.859376-21.210938 0l-21.214843 21.214843c-5.859375 5.855469-5.859375 15.351563 0 21.210938 5.855469 5.859375 15.351562 5.859375 21.210937 0l21.214844-21.210938c5.859375-5.859375 5.859375-15.355469 0-21.214843zm0 0"/><path d="m393.886719 373.878906c-5.859375 5.855469-5.859375 15.355469 0 21.210938l21.214843 21.214844c5.855469 5.855468 15.351563 5.855468 21.210938 0 5.859375-5.859376 5.859375-15.355469 0-21.214844l-21.214844-21.210938c-5.855468-5.859375-15.355468-5.859375-21.210937 0zm0 0"/><path d="m81.898438 70.679688c-5.855469-5.855469-15.351563-5.855469-21.210938 0-5.859375 5.859374-5.859375 15.355468 0 21.214843l21.214844 21.210938c5.855468 5.859375 15.355468 5.859375 21.210937 0 5.859375-5.859375 5.859375-15.355469 0-21.210938zm0 0"/><path d="m256 451c-8.285156 0-15 6.714844-15 15v31c0 8.285156 6.714844 15 15 15s15-6.714844 15-15v-31c0-8.285156-6.714844-15-15-15zm0 0"/><path d="m271 46v-31c0-8.285156-6.714844-15-15-15s-15 6.714844-15 15v31c0 8.285156 6.714844 15 15 15s15-6.714844 15-15zm0 0"/></svg>